<?xml version="1.0" encoding="utf-8"?>
<!-- Generator: Adobe Illustrator 22.0.1, SVG Export Plug-In . SVG Version: 6.00 Build 0)  -->
<svg version="1.1" id="Layer_1" xmlns="http://www.w3.org/2000/svg" xmlns:xlink="http://www.w3.org/1999/xlink" x="0px" y="0px"
	 viewBox="0 0 159.5 70.3" style="enable-background:new 0 0 159.5 70.3;" xml:space="preserve">
<style type="text/css">
	.st0{fill:#CF2027;}
</style>
<g>
	<g>
		<path class="st0" d="M104.3,0L83,35l21.3,35h-7.2L79.3,40.9L61.6,70h-7.2l21.3-35L54.4,0h7.2l17.7,29.1L97.1,0H104.3z"/>
	</g>
	<g>
		<path class="st0" d="M158.7,0v5h-50V0H158.7z"/>
	</g>
	<g>
		<path class="st0" d="M50,65.3v5H0v-5H50z"/>
	</g>
</g>
<g>
	<path d="M28.7,50h-3.4l-7.4-13.5H11V50H8V16.4h10.6c5.5,0.1,9.9,4.5,9.9,10c0,4.8-3.2,8.6-7.4,9.7L28.7,50z M11,33.6h7.5
		c3.9,0,7.1-3.2,7.1-7.1c0-4-3.2-7.1-7.1-7.1H11V33.6z"/>
	<path d="M40.2,16.4V50h-3V16.4H40.2z"/>
</g>
<g>
	<path d="M129,44.1l2.7,1.6c-3.1,2.9-7.2,4.6-11.6,4.6c-9.4,0-17-7.6-17-17c0-9.4,7.6-17,17-17c4.5,0,8.5,1.7,11.6,4.6l-2.7,1.6
		c-2.4-2.1-5.5-3.2-8.9-3.2c-7.8,0-14.1,6.3-14.1,14c0,7.8,6.2,14.1,14.1,14.1C123.5,47.3,126.5,46.2,129,44.1z"/>
	<path d="M159.5,16.4L148,35.4V50h-2.9V35.3l-11.5-18.8h3.5l9.5,15.6l9.5-15.6H159.5z"/>
</g>
</svg>
