<?xml version="1.0" encoding="utf-8"?>
<!-- Generator: Adobe Illustrator 22.0.1, SVG Export Plug-In . SVG Version: 6.00 Build 0)  -->
<svg version="1.1" id="Layer_1" xmlns="http://www.w3.org/2000/svg" xmlns:xlink="http://www.w3.org/1999/xlink" x="0px" y="0px"
	 viewBox="0 0 149.5 84" style="enable-background:new 0 0 149.5 84;" xml:space="preserve">
<style type="text/css">
	.st0{fill:#B82025;}
</style>
<g>
	<path d="M4,15.6h10.6c7.4,0,10.6,3.4,10.6,10.5v2.8c0,4.7-1.5,7.7-4.7,9V38c3.6,1.1,4.7,4.5,4.7,9.6v8c0,2.2,0.1,3.8,0.8,5.5h-7.3
		c-0.4-1.2-0.7-1.9-0.7-5.6v-8.3c0-4.2-1.2-5.6-4.5-5.6h-2.5v19.5H4V15.6z M13.7,35.1c2.7,0,4.3-1.2,4.3-4.8v-3.5
		c0-3.2-1.1-4.7-3.6-4.7h-3.2v13H13.7z"/>
	<path d="M30.1,15.6h7.2v45.5h-7.2V15.6z"/>
	<path d="M102.4,50.6V26.2c0-7,3.6-11.2,10.5-11.2c6.9,0,10.5,4.2,10.5,11.2V31h-6.8v-5.3c0-3-1.4-4.2-3.6-4.2
		c-2.1,0-3.6,1.2-3.6,4.2v25.4c0,3,1.4,4.2,3.6,4.2c2.1,0,3.6-1.2,3.6-4.2v-7h6.8v6.4c0,7-3.6,11.2-10.5,11.2
		C106,61.8,102.4,57.6,102.4,50.6z"/>
	<path d="M133.7,41.8l-8.6-26.1h7.6l4.9,16.7h0.1l4.9-16.7h7l-8.6,26.1v19.4h-7.2V41.8z"/>
</g>
<g>
	<g>
		<path class="st0" d="M63.4,41L48.9,0h13.9l8.9,27.1h0.2L81,0h12.5L79,41l15.2,43H80.3l-9.6-29.3h-0.2L60.6,84H48.2L63.4,41z"/>
	</g>
	<g>
		<path class="st0" d="M103.4,0.1h46v7.8h-46V0.1z"/>
	</g>
	<g>
		<path class="st0" d="M0,76.9h40.3v6.8H0V76.9z"/>
	</g>
</g>
</svg>
